<svg width="16" height="16" viewBox="0 0 16 16" fill="none" xmlns="http://www.w3.org/2000/svg">
<path fill-rule="evenodd" clip-rule="evenodd" d="M6.08337 5.33334C6.08337 4.27479 6.94149 3.41667 8.00004 3.41667C9.05859 3.41667 9.91671 4.27479 9.91671 5.33334C9.91671 6.39188 9.05859 7.25 8.00004 7.25C6.94149 7.25 6.08337 6.39188 6.08337 5.33334ZM8.00004 1.91667C6.11307 1.91667 4.58337 3.44637 4.58337 5.33334C4.58337 7.22031 6.11307 8.75 8.00004 8.75C9.88701 8.75 11.4167 7.22031 11.4167 5.33334C11.4167 3.44637 9.88701 1.91667 8.00004 1.91667ZM5.33342 9.58331C4.42726 9.58331 3.55822 9.94328 2.91747 10.584C2.27672 11.2248 1.91675 12.0938 1.91675 13V14.3333C1.91675 14.7475 2.25253 15.0833 2.66675 15.0833H13.3334C13.7476 15.0833 14.0834 14.7475 14.0834 14.3333V13C14.0834 12.0938 13.7234 11.2248 13.0827 10.584C12.4419 9.94328 11.5729 9.58331 10.6667 9.58331H5.33342ZM3.97813 11.6447C4.33757 11.2852 4.82508 11.0833 5.33342 11.0833H10.6667C11.1751 11.0833 11.6626 11.2852 12.022 11.6447C12.3815 12.0041 12.5834 12.4916 12.5834 13V13.5833H3.41675V13C3.41675 12.4916 3.61868 12.0041 3.97813 11.6447Z" fill="white"/>
</svg>
